<?xml version="1.0" encoding="UTF-8" standalone="no"?>
<svg
   xmlns:dc="http://purl.org/dc/elements/1.1/"
   xmlns:cc="http://creativecommons.org/ns#"
   xmlns:rdf="http://www.w3.org/1999/02/22-rdf-syntax-ns#"
   xmlns:svg="http://www.w3.org/2000/svg"
   xmlns="http://www.w3.org/2000/svg"
   id="svg1148"
   version="1.1"
   viewBox="0 0 105.5625 29.097912"
   height="29.097912mm"
   width="105.5625mm">
  <defs
     id="defs1142" />
  <metadata
     id="metadata1145">
    <rdf:RDF>
      <cc:Work
         rdf:about="">
        <dc:format>image/svg+xml</dc:format>
        <dc:type
           rdf:resource="http://purl.org/dc/dcmitype/StillImage" />
        <dc:title></dc:title>
      </cc:Work>
    </rdf:RDF>
  </metadata>
  <g
     transform="translate(-30.272005,-92.067093)"
     id="layer1">
    <rect
       y="92.067093"
       x="30.272005"
       height="29.097912"
       width="105.5625"
       id="rect3653"
       style="opacity:1;fill:none;fill-opacity:1;stroke:none;stroke-width:0.718061;stroke-miterlimit:4;stroke-dasharray:none;stroke-dashoffset:0;stroke-opacity:1" />
    <g
       id="g1776-3-2-5-2"
       transform="translate(-6.2633615,6.6559915)"
       style="fill:#0044aa">
      <path
         id="path839-9-6-0-0-5"
         style="fill:#003380;stroke:#000000;stroke-width:0.264583;stroke-linecap:butt;stroke-linejoin:miter;stroke-opacity:1"
         d="m 52.933281,102.60276 -10.616566,1.69864 a 1.5514089,1.5514089 130.45488 0 0 -1.306302,1.53193 v 0 a 1.1206781,1.1206781 40.268827 0 0 1.304917,1.10543 l 13.265166,-2.21086 a 1.5616515,1.5616515 130.26883 0 0 1.304917,-1.54041 v -2.64582 A 1.6455945,1.6455945 51.203706 0 0 55.593394,98.934505 L 44.948262,96.592577 a 1.6455945,1.6455945 51.203706 0 1 -1.292019,-1.607161 1.1362814,1.1362814 151.4582 0 1 1.31014,-0.712586 l 10.60889,-1.485244 a 1.5210267,1.5210267 131.01519 0 0 1.31014,-1.506337 1.1206784,1.1206784 40.268829 0 0 -1.304917,-1.10543 L 42.31533,92.38668 a 1.5616508,1.5616508 130.26884 0 0 -1.304917,1.540403 v 2.645833 a 1.6136993,1.6136993 50.654972 0 0 1.297226,1.582363 l 10.634718,2.126941 a 1.6136993,1.6136993 50.654972 0 1 1.297226,1.58237 1.1562322,1.1562322 150.52988 0 1 -1.306302,0.73817 z" />
      <path
         id="path841-1-7-2-3-4"
         style="fill:#0044aa;stroke:#000000;stroke-width:0.264583px;stroke-linecap:butt;stroke-linejoin:miter;stroke-opacity:1"
         d="m 82.020833,92.604166 0,0 a 1.6491691,1.6491691 51.264403 0 0 1.291414,1.609898 l 9.323422,2.071871 a 1.6491691,1.6491691 51.264403 0 1 1.291414,1.609898 l 0,0.264583 a 1.0384878,1.0384878 141.86813 0 1 -1.28508,1.008786 l -9.33609,-2.282155 a 1.0384878,1.0384878 141.86813 0 0 -1.28508,1.008786 v 6.614577 a 1.3229167,1.3229167 45 0 0 1.322917,1.32292 h 7.937496 a 2.1405278,2.1405278 148.28257 0 0 1.914545,-1.18325 l 0.139664,-0.27933 a 0.31229933,0.31229933 13.282569 0 1 0.591628,0.13967 1.322915,1.322915 44.999926 0 0 1.322917,1.32291 1.322915,1.322915 134.99993 0 0 1.322913,-1.32292 V 95.25 A 1.5851357,1.5851357 50.152426 0 0 95.271335,93.690432 L 83.322411,91.5179 a 1.1040749,1.1040749 140.15243 0 0 -1.301578,1.086266 z m 3.950747,7.625824 5.327666,0.88794 a 0.90071593,0.90071593 65.213115 0 1 0.624279,1.35188 1.4698162,1.4698162 172.52106 0 1 -1.436029,0.18852 l -4.497916,0 a 1.3229167,1.3229167 45 0 1 -1.322917,-1.32292 1.1206767,1.1206767 139.73126 0 1 1.304917,-1.10542 z" />
      <path
         id="path850-2-5-3-6-7"
         style="fill:#003380;stroke:#000000;stroke-width:0.264583px;stroke-linecap:butt;stroke-linejoin:miter;stroke-opacity:1"
         d="m 59.531243,92.604167 a 1.3229165,1.3229165 44.999991 0 0 1.322917,1.322916 l 6e-6,0 a 1.3229167,1.3229167 135 0 0 1.322917,-1.322917 1.3229165,1.3229165 44.999991 0 0 -1.322917,-1.322916 h -6e-6 a 1.3229167,1.3229167 135 0 0 -1.322917,1.322917 z m 0,11.906243 V 96.572917 A 1.3229167,1.3229167 135 0 1 60.85416,95.25 h 6e-6 a 1.3229167,1.3229167 45 0 1 1.322917,1.322917 v 7.937493 a 1.3229167,1.3229167 135 0 1 -1.322917,1.32292 l -6e-6,0 a 1.3229167,1.3229167 45 0 1 -1.322917,-1.32292 z" />
      <path
         id="path854-7-3-7-1-4"
         style="fill:#003380;stroke:#000000;stroke-width:0.264583px;stroke-linecap:butt;stroke-linejoin:miter;stroke-opacity:1"
         d="m 64.822913,93.927084 v 9.260406 a 1.0612065,1.0612065 38.735604 0 0 1.291414,1.03594 l 9.323422,-2.07187 a 1.0612065,1.0612065 38.735604 0 1 1.291414,1.03594 v 2.64583 a 1.6943601,1.6943601 127.98188 0 1 -1.283418,1.64377 l -8.016494,2.00413 a 1.6943601,1.6943601 127.98188 0 0 -1.283418,1.64377 1.084531,1.084531 39.344948 0 0 1.297227,1.06346 l 10.634706,-2.12693 a 1.6136987,1.6136987 129.34504 0 0 1.297227,-1.58237 V 93.927084 a 1.3229167,1.3229167 45 0 0 -1.322917,-1.322917 1.322915,1.322915 134.99993 0 0 -1.322913,1.322917 0.31229896,0.31229896 166.71748 0 1 -0.591628,0.139664 L 75.997871,93.787419 A 2.1405267,2.1405267 31.717444 0 0 74.083326,92.604167 H 66.14583 a 1.3229167,1.3229167 135 0 0 -1.322917,1.322917 z M 68.79166,95.25 h 4.497916 a 2.3365224,2.3365224 29.518125 0 1 2.003552,1.134392 2.8390377,2.8390377 85.720009 0 1 0.113115,1.511442 V 98.425 a 1.721923,1.721923 127.5343 0 1 -1.278248,1.66378 l -5.381004,1.43493 a 1.0163687,1.0163687 37.534304 0 1 -1.278248,-0.98205 V 96.572917 A 1.3229167,1.3229167 135 0 1 68.79166,95.25 Z" />
      <path
         style="fill:#0044aa;stroke:#000000;stroke-width:0.264583px;stroke-linecap:butt;stroke-linejoin:miter;stroke-opacity:1"
         d="M 99.218753,104.51041 V 92.604166 a 1.3229167,1.3229167 135 0 1 1.322917,-1.322917 h 0 a 1.3229167,1.3229167 45 0 1 1.32292,1.322917 v 0 a 0.3122989,0.3122989 13.282552 0 0 0.59163,0.139665 l 0.13966,-0.27933 a 1.5940182,1.5940182 156.25526 0 1 1.86365,-0.819819 l 6.71637,1.918968 a 1.7538308,1.7538308 52.972705 0 1 1.27202,1.68635 v 9.26041 a 1.3229167,1.3229167 135 0 1 -1.32292,1.32292 1.322915,1.322915 45.000074 0 1 -1.32291,-1.32292 l 0,-6.614577 a 1.8646255,1.8646255 54.645016 0 0 -1.24865,-1.759943 l -2.79437,-0.978031 a 1.705494,1.705494 161.49003 0 0 -1.98247,0.663708 l -1.17819,1.767282 a 4.3693016,4.3693016 106.84502 0 0 -0.73382,2.423651 l 0,4.49791 a 1.3229167,1.3229167 135 0 1 -1.32292,1.32292 h 0 a 1.3229167,1.3229167 45 0 1 -1.322917,-1.32292 z"
         id="path860-0-5-5-0-4" />
      <path
         d="m 115.09376,92.604167 a 1.3229165,1.3229165 44.999991 0 0 1.32292,1.322916 1.322915,1.322915 134.99993 0 0 1.32291,-1.322917 1.3229165,1.3229165 44.999991 0 0 -1.32292,-1.322916 1.322915,1.322915 134.99993 0 0 -1.32291,1.322917 z m 0,11.906243 V 96.572917 A 1.3229167,1.3229167 135 0 1 116.41668,95.25 h 0 a 1.3229155,1.3229155 45.000027 0 1 1.32292,1.322917 l -10e-6,7.937493 a 1.322918,1.322918 135.00003 0 1 -1.32292,1.32292 1.322915,1.322915 45.000074 0 1 -1.32291,-1.32292 z"
         style="fill:#0044aa;stroke:#000000;stroke-width:0.264583px;stroke-linecap:butt;stroke-linejoin:miter;stroke-opacity:1"
         id="path850-3-9-6-9-6-3" />
      <path
         style="fill:#0044aa;stroke:#000000;stroke-width:0.264583px;stroke-linecap:butt;stroke-linejoin:miter;stroke-opacity:1"
         d="M 120.38542,104.51041 V 92.604166 a 1.3229167,1.3229167 135 0 1 1.32292,-1.322917 h 0 a 1.3229167,1.3229167 45 0 1 1.32292,1.322917 v 0 a 0.31229679,0.31229679 13.282465 0 0 0.59162,0.139663 l 0.13967,-0.279326 a 1.3229141,1.3229141 161.56499 0 1 1.77487,-0.591628 l 2.92517,1.462582 a 1.8354481,1.8354481 170.78251 0 0 2.11869,-0.343818 l 0.77495,-0.774945 a 2.0062533,2.0062533 168.40069 0 1 2.16374,-0.444125 l 4.15798,1.663195 a 1.9539918,1.9539918 55.900708 0 1 1.2283,1.814236 v 9.26041 a 1.3229167,1.3229167 135 0 1 -1.32292,1.32292 1.322915,1.322915 45.000074 0 1 -1.32291,-1.32292 v -6.614577 a 2.1405256,2.1405256 58.282543 0 0 -1.18325,-1.914544 l -0.27933,-0.139663 a 1.8354462,1.8354462 170.78252 0 0 -2.11869,0.343817 l -0.77495,0.774946 a 1.8354477,1.8354477 170.7825 0 1 -2.11869,0.343818 l -2.92517,-1.462582 a 1.4985759,1.4985759 165.12754 0 0 -1.91707,0.509108 l -1.17819,1.767282 a 4.3693016,4.3693016 106.84502 0 0 -0.73382,2.423655 l 0,3.96874 a 1.3229167,1.3229167 135 0 1 -1.32292,1.32292 l 0,0 a 1.3229167,1.3229167 45 0 1 -1.32292,-1.32292 z"
         id="path877-3-2-2-3-0" />
    </g>
    <g
       id="g1814-9-2-2-7"
       transform="translate(-5.8907515,-107.96788)"
       style="fill:#0066ff">
      <path
         d="m 51.610351,216.37359 -10.616565,1.69864 a 1.5514089,1.5514089 130.45488 0 0 -1.306302,1.53193 v 0 a 1.1206781,1.1206781 40.268827 0 0 1.304917,1.10543 l 13.265165,-2.21086 a 1.5616515,1.5616515 130.26883 0 0 1.304917,-1.54041 v -2.64582 a 1.645595,1.645595 51.203715 0 0 -1.292019,-1.60716 L 43.625333,210.3634 a 1.645595,1.645595 51.203715 0 1 -1.292019,-1.60716 1.1362808,1.1362808 151.45828 0 1 1.31014,-0.71258 l 10.608889,-1.48525 a 1.5210274,1.5210274 131.01518 0 0 1.31014,-1.50634 1.1206774,1.1206774 40.268758 0 0 -1.304917,-1.10542 l -13.265165,2.21085 a 1.5616505,1.5616505 130.26884 0 0 -1.304917,1.54041 v 2.64583 a 1.6136997,1.6136997 50.654979 0 0 1.297226,1.58237 l 10.634717,2.12694 a 1.6136997,1.6136997 50.654979 0 1 1.297226,1.58237 1.1562322,1.1562322 150.52988 0 1 -1.306302,0.73817 z"
         style="fill:#0055d4;stroke:#000000;stroke-width:0.264583;stroke-linecap:butt;stroke-linejoin:miter;stroke-opacity:1"
         id="path839-9-3-1-8-0-8" />
      <path
         d="m 80.697903,206.375 a 1.6491666,1.6491666 51.264337 0 0 1.291414,1.60989 l 9.323422,2.07187 a 1.6491687,1.6491687 51.264396 0 1 1.291414,1.6099 v 0.26458 a 1.0384875,1.0384875 141.86814 0 1 -1.28508,1.00879 l -9.33609,-2.28216 a 1.0384875,1.0384875 141.86814 0 0 -1.28508,1.00879 l 0,6.61458 a 1.3229167,1.3229167 45 0 0 1.322917,1.32292 h 7.937496 a 2.1405278,2.1405278 148.28257 0 0 1.914545,-1.18325 l 0.139664,-0.27933 a 0.31229933,0.31229933 13.282569 0 1 0.591628,0.13967 1.322915,1.322915 44.999926 0 0 1.322917,1.32291 1.322915,1.322915 134.99993 0 0 1.322913,-1.32292 v -9.26041 a 1.5851353,1.5851353 50.152418 0 0 -1.301578,-1.55957 l -11.948924,-2.17253 a 1.1040752,1.1040752 140.15242 0 0 -1.301578,1.08627 z m 3.950747,7.62582 5.327666,0.88794 a 0.90071593,0.90071593 65.213115 0 1 0.624279,1.35188 1.4698162,1.4698162 172.52106 0 1 -1.436029,0.18852 H 84.66665 a 1.3229167,1.3229167 45 0 1 -1.322917,-1.32292 1.1206767,1.1206767 139.73126 0 1 1.304917,-1.10542 z"
         style="fill:#0066ff;stroke:#000000;stroke-width:0.264583px;stroke-linecap:butt;stroke-linejoin:miter;stroke-opacity:1"
         id="path841-1-1-2-9-6-6" />
      <path
         d="m 58.208313,206.375 a 1.322915,1.322915 44.999926 0 0 1.322917,1.32291 h 6e-6 a 1.3229167,1.3229167 135 0 0 1.322917,-1.32292 1.322915,1.322915 44.999926 0 0 -1.322917,-1.32291 h -6e-6 a 1.3229167,1.3229167 135 0 0 -1.322917,1.32292 z m 0,11.90624 v -7.93749 a 1.3229167,1.3229167 135 0 1 1.322917,-1.32292 h 6e-6 a 1.3229167,1.3229167 45 0 1 1.322917,1.32292 v 7.93749 a 1.3229167,1.3229167 135 0 1 -1.322917,1.32292 h -6e-6 a 1.3229167,1.3229167 45 0 1 -1.322917,-1.32292 z"
         style="fill:#0055d4;stroke:#000000;stroke-width:0.264583px;stroke-linecap:butt;stroke-linejoin:miter;stroke-opacity:1"
         id="path850-2-8-7-7-1-8" />
      <path
         d="m 63.499983,207.69792 v 9.2604 a 1.0612065,1.0612065 38.735604 0 0 1.291414,1.03594 l 9.323422,-2.07187 a 1.0612065,1.0612065 38.735604 0 1 1.291414,1.03594 v 2.64583 a 1.6943601,1.6943601 127.98188 0 1 -1.283418,1.64377 l -8.016494,2.00413 a 1.6943601,1.6943601 127.98188 0 0 -1.283418,1.64377 1.084531,1.084531 39.344948 0 0 1.297227,1.06346 l 10.634706,-2.12693 a 1.6136987,1.6136987 129.34504 0 0 1.297227,-1.58237 v -14.55207 a 1.3229167,1.3229167 45 0 0 -1.322917,-1.32292 1.322915,1.322915 134.99993 0 0 -1.322913,1.32292 0.31229892,0.31229892 166.71774 0 1 -0.591628,0.13966 l -0.139664,-0.27933 A 2.1405278,2.1405278 31.717431 0 0 72.760396,206.375 H 64.8229 a 1.3229167,1.3229167 135 0 0 -1.322917,1.32292 z m 3.968747,1.32291 h 4.497916 a 2.3365288,2.3365288 29.518058 0 1 2.003555,1.13439 2.8390153,2.8390153 85.720093 0 1 0.113112,1.51144 v 0.52917 a 1.7219224,1.7219224 127.53431 0 1 -1.278249,1.66379 l -5.381002,1.43492 a 1.016369,1.016369 37.534314 0 1 -1.278249,-0.98205 v -3.96874 a 1.3229167,1.3229167 135 0 1 1.322917,-1.32292 z"
         style="fill:#0055d4;stroke:#000000;stroke-width:0.264583px;stroke-linecap:butt;stroke-linejoin:miter;stroke-opacity:1"
         id="path854-7-7-0-3-5-8" />
      <path
         id="path860-0-4-9-6-5-4"
         d="M 97.895823,218.28124 V 206.375 a 1.3229167,1.3229167 135 0 1 1.322917,-1.32292 h 3e-6 a 1.3229167,1.3229167 45 0 1 1.322917,1.32292 0.31229892,0.31229892 13.282257 0 0 0.59163,0.13966 l 0.13966,-0.27933 a 1.5940198,1.5940198 156.25526 0 1 1.86365,-0.81982 l 6.71637,1.91897 a 1.7538301,1.7538301 52.972694 0 1 1.27202,1.68635 v 9.26041 a 1.3229167,1.3229167 135 0 1 -1.32292,1.32292 1.322915,1.322915 45.000074 0 1 -1.32291,-1.32292 v -6.61458 a 1.8646245,1.8646245 54.645001 0 0 -1.24865,-1.75995 l -2.79437,-0.97802 a 1.7054949,1.7054949 161.49002 0 0 -1.98247,0.6637 l -1.17819,1.76729 a 4.3693016,4.3693016 106.84502 0 0 -0.73382,2.42365 v 4.49791 a 1.3229167,1.3229167 135 0 1 -1.322917,1.32292 h -3e-6 a 1.3229167,1.3229167 45 0 1 -1.322917,-1.32292 z"
         style="fill:#0066ff;stroke:#000000;stroke-width:0.264583px;stroke-linecap:butt;stroke-linejoin:miter;stroke-opacity:1" />
      <path
         id="path850-3-9-1-3-1-4-3"
         style="fill:#0066ff;stroke:#000000;stroke-width:0.264583px;stroke-linecap:butt;stroke-linejoin:miter;stroke-opacity:1"
         d="m 113.77083,206.375 a 1.322915,1.322915 44.999926 0 0 1.32292,1.32291 1.322915,1.322915 134.99993 0 0 1.32291,-1.32292 1.322915,1.322915 44.999926 0 0 -1.32292,-1.32291 1.322915,1.322915 134.99993 0 0 -1.32291,1.32292 z m 0,11.90624 v -7.93749 a 1.3229167,1.3229167 135 0 1 1.32292,-1.32292 h 0 a 1.3229155,1.3229155 45.000027 0 1 1.32292,1.32292 l -1e-5,7.93749 a 1.322918,1.322918 135.00003 0 1 -1.32292,1.32292 1.322915,1.322915 45.000074 0 1 -1.32291,-1.32292 z" />
      <path
         id="path877-3-6-6-2-7-1"
         d="M 119.06249,218.28124 V 206.375 a 1.3229167,1.3229167 135 0 1 1.32292,-1.32292 l 0,0 a 1.3229167,1.3229167 45 0 1 1.32292,1.32292 0.31229681,0.31229681 13.28217 0 0 0.59162,0.13966 l 0.13967,-0.27933 a 1.3229157,1.3229157 161.56499 0 1 1.77487,-0.59162 l 2.92517,1.46257 a 1.8354503,1.8354503 170.7825 0 0 2.11869,-0.34381 l 0.77495,-0.77495 a 2.0062554,2.0062554 168.4007 0 1 2.16374,-0.44412 l 4.15798,1.66319 a 1.953991,1.953991 55.900697 0 1 1.2283,1.81424 v 9.26041 a 1.3229167,1.3229167 135 0 1 -1.32292,1.32292 1.322915,1.322915 45.000074 0 1 -1.32291,-1.32292 v -6.61458 a 2.1405206,2.1405206 58.282482 0 0 -1.18325,-1.91454 l -0.27933,-0.13967 a 1.8354518,1.8354518 170.78248 0 0 -2.11869,0.34382 l -0.77495,0.77495 a 1.8354503,1.8354503 170.7825 0 1 -2.11869,0.34381 l -2.92517,-1.46257 a 1.4985768,1.4985768 165.12752 0 0 -1.91707,0.5091 l -1.17819,1.76729 a 4.3693016,4.3693016 106.84502 0 0 -0.73382,2.42365 v 3.96874 a 1.3229167,1.3229167 135 0 1 -1.32292,1.32292 h 0 a 1.3229167,1.3229167 45 0 1 -1.32292,-1.32292 z"
         style="fill:#0066ff;stroke:#000000;stroke-width:0.264583px;stroke-linecap:butt;stroke-linejoin:miter;stroke-opacity:1" />
    </g>
    <g
       id="g1823-0-9-6-4"
       transform="translate(-6.8016645,-135.42138)"
       style="fill:#80b3ff">
      <path
         id="path839-9-3-3-6-3-5-9"
         style="fill:#5599ff;stroke:#374837;stroke-width:0.264583;stroke-linecap:butt;stroke-linejoin:miter;stroke-opacity:1"
         d="m 51.610355,242.83193 -10.616566,1.69864 a 1.5514089,1.5514089 130.45488 0 0 -1.306302,1.53193 v 0 a 1.1206781,1.1206781 40.268827 0 0 1.304917,1.10543 l 13.265166,-2.21086 a 1.5616515,1.5616515 130.26883 0 0 1.304917,-1.54041 v -2.64582 a 1.645595,1.645595 51.203715 0 0 -1.292019,-1.60716 l -10.645132,-2.34194 a 1.645595,1.645595 51.203715 0 1 -1.292019,-1.60716 1.1362807,1.1362807 151.45828 0 1 1.31014,-0.71258 l 10.60889,-1.48525 a 1.5210274,1.5210274 131.01518 0 0 1.31014,-1.50634 1.1206774,1.1206774 40.268758 0 0 -1.304917,-1.10542 l -13.265166,2.21085 a 1.5616505,1.5616505 130.26884 0 0 -1.304917,1.54041 v 2.64583 a 1.6136997,1.6136997 50.654979 0 0 1.297226,1.58237 l 10.634718,2.12694 a 1.6136997,1.6136997 50.654979 0 1 1.297226,1.58237 1.1562322,1.1562322 150.52988 0 1 -1.306302,0.73817 z" />
      <path
         id="path841-1-1-8-2-1-6-2"
         style="fill:#80b3ff;stroke:#000000;stroke-width:0.264583px;stroke-linecap:butt;stroke-linejoin:miter;stroke-opacity:1"
         d="m 80.697907,232.83334 a 1.6491617,1.6491617 51.264186 0 0 1.291414,1.60988 l 9.323422,2.07188 a 1.6491701,1.6491701 51.264419 0 1 1.291414,1.6099 v 0.26458 a 1.0384875,1.0384875 141.86814 0 1 -1.28508,1.00879 l -9.33609,-2.28216 a 1.0384875,1.0384875 141.86814 0 0 -1.28508,1.00879 v 6.61458 a 1.3229167,1.3229167 45 0 0 1.322917,1.32292 h 7.937497 a 2.1405271,2.1405271 148.28256 0 0 1.914545,-1.18325 l 0.139663,-0.27933 a 0.31229911,0.31229911 13.28256 0 1 0.591628,0.13967 1.322915,1.322915 44.999926 0 0 1.322917,1.32291 1.3229155,1.3229155 134.99995 0 0 1.322914,-1.32292 v -9.26042 a 1.5851342,1.5851342 50.152399 0 0 -1.301578,-1.55957 l -11.948925,-2.17252 a 1.104076,1.104076 140.1524 0 0 -1.301578,1.08627 z m 3.950748,7.62582 5.327666,0.88794 a 0.90071593,0.90071593 65.213115 0 1 0.624279,1.35188 1.4698162,1.4698162 172.52106 0 1 -1.436029,0.18852 l -4.497916,0 a 1.3229167,1.3229167 45 0 1 -1.322917,-1.32292 1.1206767,1.1206767 139.73126 0 1 1.304917,-1.10542 z" />
      <path
         id="path850-2-8-5-6-9-9-0"
         style="fill:#5599ff;stroke:#374837;stroke-width:0.264583px;stroke-linecap:butt;stroke-linejoin:miter;stroke-opacity:1"
         d="m 58.208317,232.83334 a 1.32291,1.32291 44.99971 0 0 1.322917,1.3229 l 6e-6,0 a 1.3229167,1.3229167 135 0 0 1.322917,-1.32292 1.32291,1.32291 44.99971 0 0 -1.322917,-1.3229 h -6e-6 a 1.3229167,1.3229167 135 0 0 -1.322917,1.32292 z m 0,11.90624 v -7.93749 a 1.3229167,1.3229167 135 0 1 1.322917,-1.32292 h 6e-6 a 1.3229167,1.3229167 45 0 1 1.322917,1.32292 v 7.93749 a 1.3229167,1.3229167 135 0 1 -1.322917,1.32292 h -6e-6 a 1.3229167,1.3229167 45 0 1 -1.322917,-1.32292 z" />
      <path
         id="path854-7-7-5-1-4-3-6"
         style="fill:#5599ff;stroke:#374837;stroke-width:0.264583px;stroke-linecap:butt;stroke-linejoin:miter;stroke-opacity:1"
         d="m 63.499987,234.15626 v 9.2604 a 1.0612065,1.0612065 38.735604 0 0 1.291414,1.03594 l 9.323423,-2.07187 a 1.0612065,1.0612065 38.735604 0 1 1.291414,1.03594 v 2.64583 a 1.6943601,1.6943601 127.98189 0 1 -1.283418,1.64377 l -8.016495,2.00413 a 1.6943601,1.6943601 127.98189 0 0 -1.283418,1.64377 1.084531,1.084531 39.344948 0 0 1.297227,1.06346 l 10.634705,-2.12693 a 1.6136987,1.6136987 129.34504 0 0 1.297227,-1.58237 v -14.55207 a 1.3229167,1.3229167 45 0 0 -1.322917,-1.32292 1.322914,1.322914 134.99988 0 0 -1.322911,1.32292 0.31229935,0.31229935 166.71773 0 1 -0.591629,0.13966 l -0.139664,-0.27933 a 2.1405293,2.1405293 31.717414 0 0 -1.914546,-1.18325 h -7.937495 a 1.3229167,1.3229167 135 0 0 -1.322917,1.32292 z m 3.968746,1.32291 h 4.497916 a 2.3365288,2.3365288 29.518058 0 1 2.003555,1.13439 2.8390153,2.8390153 85.720093 0 1 0.113112,1.51144 v 0.52917 a 1.7219224,1.7219224 127.53431 0 1 -1.278249,1.66379 l -5.381002,1.43492 a 1.016369,1.016369 37.534314 0 1 -1.278249,-0.98205 v -3.96874 a 1.3229167,1.3229167 135 0 1 1.322917,-1.32292 z" />
      <path
         style="fill:#80b3ff;stroke:#000000;stroke-width:0.264583px;stroke-linecap:butt;stroke-linejoin:miter;stroke-opacity:1"
         d="m 97.895826,244.73958 0,-11.90624 a 1.3229167,1.3229167 135 0 1 1.322917,-1.32292 h 0 a 1.3229167,1.3229167 45 0 1 1.322917,1.32292 0.3122988,0.3122988 13.281383 0 0 0.59163,0.13965 l 0.13966,-0.27932 a 1.5940239,1.5940239 156.25528 0 1 1.86365,-0.81982 l 6.71637,1.91896 a 1.7538283,1.7538283 52.972665 0 1 1.27202,1.68635 v 9.26042 a 1.3229167,1.3229167 135 0 1 -1.32292,1.32292 1.322915,1.322915 45.000074 0 1 -1.32291,-1.32292 V 238.125 a 1.8646278,1.8646278 54.64505 0 0 -1.24865,-1.75995 l -2.79437,-0.97803 a 1.7054899,1.7054899 161.49003 0 0 -1.98247,0.6637 l -1.17819,1.7673 a 4.3693108,4.3693108 106.84498 0 0 -0.73382,2.42365 v 4.49791 a 1.3229167,1.3229167 135 0 1 -1.322917,1.32292 h 0 a 1.3229167,1.3229167 45 0 1 -1.322917,-1.32292 z"
         id="path860-0-4-0-8-7-7-8" />
      <path
         d="m 113.77083,232.83334 a 1.32291,1.32291 44.99971 0 0 1.32292,1.3229 1.322915,1.322915 134.99993 0 0 1.32291,-1.32292 1.32291,1.32291 44.99971 0 0 -1.32292,-1.3229 1.322915,1.322915 134.99993 0 0 -1.32291,1.32292 z m 0,11.90624 v -7.93749 a 1.3229167,1.3229167 135 0 1 1.32292,-1.32292 h 0 a 1.3229155,1.3229155 45.000027 0 1 1.32292,1.32292 l -1e-5,7.93749 a 1.322918,1.322918 135.00003 0 1 -1.32292,1.32292 1.322915,1.322915 45.000074 0 1 -1.32291,-1.32292 z"
         style="fill:#80b3ff;stroke:#000000;stroke-width:0.264583px;stroke-linecap:butt;stroke-linejoin:miter;stroke-opacity:1"
         id="path850-3-9-1-1-7-8-4-9" />
      <path
         style="fill:#80b3ff;stroke:#000000;stroke-width:0.264583px;stroke-linecap:butt;stroke-linejoin:miter;stroke-opacity:1"
         d="m 119.0625,244.73958 v -11.90624 a 1.3229167,1.3229167 135 0 1 1.32292,-1.32292 1.322915,1.322915 45.000074 0 1 1.32291,1.32292 0.3122988,0.3122988 13.281383 0 0 0.59163,0.13965 l 0.13966,-0.27932 a 1.3229227,1.3229227 161.56509 0 1 1.77488,-0.59163 l 2.92516,1.46258 a 1.8354591,1.8354591 170.78259 0 0 2.1187,-0.34382 l 0.77494,-0.77494 a 2.0062653,2.0062653 168.40078 0 1 2.16375,-0.44412 l 4.15797,1.66318 a 1.9539894,1.9539894 55.900675 0 1 1.2283,1.81424 v 9.26042 a 1.3229167,1.3229167 135 0 1 -1.32292,1.32292 1.32291,1.32291 45.00029 0 1 -1.3229,-1.32292 V 238.125 a 2.1405169,2.1405169 58.282439 0 0 -1.18325,-1.91454 l -0.27934,-0.13967 a 1.8354547,1.8354547 170.78244 0 0 -2.11869,0.34382 l -0.77495,0.77495 a 1.8354503,1.8354503 170.7825 0 1 -2.11869,0.34381 l -2.92517,-1.46257 a 1.4985768,1.4985768 165.12752 0 0 -1.91707,0.5091 l -1.17819,1.76729 a 4.3693016,4.3693016 106.84502 0 0 -0.73382,2.42365 v 3.96874 a 1.3229167,1.3229167 135 0 1 -1.32292,1.32292 1.322915,1.322915 45.000074 0 1 -1.32291,-1.32292 z"
         id="path877-3-6-2-9-4-5-2" />
    </g>
  </g>
</svg>
