<?xml version="1.0" encoding="UTF-8" standalone="no"?>
<svg
   xmlns:dc="http://purl.org/dc/elements/1.1/"
   xmlns:cc="http://creativecommons.org/ns#"
   xmlns:rdf="http://www.w3.org/1999/02/22-rdf-syntax-ns#"
   xmlns:svg="http://www.w3.org/2000/svg"
   xmlns="http://www.w3.org/2000/svg"
   id="svg1855"
   version="1.1"
   viewBox="0 0 41.010414 41.010414"
   height="41.010414mm"
   width="41.010414mm">
  <defs
     id="defs1849" />
  <metadata
     id="metadata1852">
    <rdf:RDF>
      <cc:Work
         rdf:about="">
        <dc:format>image/svg+xml</dc:format>
        <dc:type
           rdf:resource="http://purl.org/dc/dcmitype/StillImage" />
        <dc:title></dc:title>
      </cc:Work>
    </rdf:RDF>
  </metadata>
  <g
     transform="translate(-93.6436,-81.548363)"
     id="layer1">
    <rect
       y="81.548363"
       x="93.6436"
       height="41.010414"
       width="41.010414"
       id="rect3641"
       style="opacity:1;fill:none;fill-opacity:1;stroke:none;stroke-width:0.6433;stroke-miterlimit:4;stroke-dasharray:none;stroke-dashoffset:0;stroke-opacity:1" />
    <g
       transform="translate(51.31027,-103.51559)"
       id="g3651">
      <g
         id="g3639">
        <path
           id="path839-9-6-0-0-5-6"
           style="fill:#003380;stroke:#000000;stroke-width:0.264583;stroke-linecap:butt;stroke-linejoin:miter;stroke-opacity:1"
           d="m 58.665425,210.53873 -10.616566,1.69864 a 1.5514089,1.5514089 130.45488 0 0 -1.306302,1.53193 v 0 a 1.1206781,1.1206781 40.268827 0 0 1.304917,1.10543 l 13.265166,-2.21086 a 1.5616515,1.5616515 130.26883 0 0 1.304917,-1.54041 v -2.64582 a 1.645595,1.645595 51.203715 0 0 -1.292019,-1.60716 l -10.645132,-2.34194 a 1.645595,1.645595 51.203715 0 1 -1.292019,-1.60716 1.13628,1.13628 151.45831 0 1 1.31014,-0.71258 l 10.60889,-1.48524 a 1.5210263,1.5210263 131.0152 0 0 1.31014,-1.50634 v 0 a 1.1206781,1.1206781 40.268827 0 0 -1.304917,-1.10543 l -13.265166,2.21086 a 1.5616515,1.5616515 130.26883 0 0 -1.304917,1.54041 v 2.64582 a 1.6136997,1.6136997 50.654979 0 0 1.297226,1.58237 l 10.634718,2.12694 a 1.6136997,1.6136997 50.654979 0 1 1.297226,1.58237 1.1562322,1.1562322 150.52988 0 1 -1.306302,0.73817 z" />
        <path
           d="m 57.715105,209.68568 -10.616565,1.69864 a 1.5514089,1.5514089 130.45488 0 0 -1.306302,1.53193 l 0,0 a 1.1206781,1.1206781 40.268827 0 0 1.304917,1.10543 l 13.265165,-2.21086 a 1.5616515,1.5616515 130.26883 0 0 1.304917,-1.54041 l 0,-2.64582 a 1.645595,1.645595 51.203715 0 0 -1.292019,-1.60716 l -10.645131,-2.34194 a 1.645595,1.645595 51.203715 0 1 -1.292019,-1.60716 1.1362808,1.1362808 151.45828 0 1 1.31014,-0.71258 l 10.608889,-1.48525 a 1.5210274,1.5210274 131.01518 0 0 1.31014,-1.50634 1.1206774,1.1206774 40.268758 0 0 -1.304917,-1.10542 l -13.265165,2.21085 A 1.5616505,1.5616505 130.26884 0 0 45.792238,201.01 l 0,2.64583 a 1.6136997,1.6136997 50.654979 0 0 1.297226,1.58237 l 10.634717,2.12694 a 1.6136997,1.6136997 50.654979 0 1 1.297226,1.58237 1.1562322,1.1562322 150.52988 0 1 -1.306302,0.73817 z"
           style="fill:#0055d4;stroke:#000000;stroke-width:0.264583;stroke-linecap:butt;stroke-linejoin:miter;stroke-opacity:1"
           id="path839-9-3-1-8-0-8-1" />
        <path
           id="path839-9-3-3-6-3-5-9-0"
           style="fill:#5599ff;stroke:#374837;stroke-width:0.264583;stroke-linecap:butt;stroke-linejoin:miter;stroke-opacity:1"
           d="m 56.804196,208.69053 -10.616566,1.69864 a 1.5514089,1.5514089 130.45488 0 0 -1.306302,1.53193 v 0 a 1.1206781,1.1206781 40.268827 0 0 1.304917,1.10543 l 13.265166,-2.21086 a 1.5616515,1.5616515 130.26883 0 0 1.304917,-1.54041 l 0,-2.64582 a 1.645595,1.645595 51.203715 0 0 -1.292019,-1.60716 l -10.645132,-2.34194 a 1.645595,1.645595 51.203715 0 1 -1.292019,-1.60716 1.1362807,1.1362807 151.45828 0 1 1.31014,-0.71258 l 10.60889,-1.48525 a 1.5210274,1.5210274 131.01518 0 0 1.31014,-1.50634 1.1206774,1.1206774 40.268758 0 0 -1.304917,-1.10542 l -13.265166,2.21085 a 1.5616505,1.5616505 130.26884 0 0 -1.304917,1.54041 v 2.64583 a 1.6136997,1.6136997 50.654979 0 0 1.297226,1.58237 l 10.634718,2.12694 a 1.6136997,1.6136997 50.654979 0 1 1.297226,1.58237 1.1562322,1.1562322 150.52988 0 1 -1.306302,0.73817 z" />
      </g>
      <g
         id="g3634"
         transform="translate(-21.589141,0.85487333)">
        <path
           id="path841-1-7-2-3-4-4"
           style="fill:#0044aa;stroke:#000000;stroke-width:0.264583px;stroke-linecap:butt;stroke-linejoin:miter;stroke-opacity:1"
           d="m 87.752977,200.54014 a 1.649168,1.649168 51.26436 0 0 1.291414,1.60989 l 9.323422,2.07188 a 1.6491701,1.6491701 51.264419 0 1 1.291414,1.6099 l 0,0.26457 a 1.0384884,1.0384884 141.86812 0 1 -1.28508,1.00879 l -9.33609,-2.28215 a 1.0384884,1.0384884 141.86812 0 0 -1.28508,1.00879 l 0,6.61457 a 1.3229167,1.3229167 45 0 0 1.322917,1.32292 h 7.937496 a 2.1405278,2.1405278 148.28257 0 0 1.914545,-1.18325 l 0.139664,-0.27933 a 0.31229933,0.31229933 13.282569 0 1 0.591628,0.13967 1.322915,1.322915 44.999926 0 0 1.322913,1.32291 1.3229165,1.3229165 134.99999 0 0 1.32292,-1.32292 l 0,-9.26041 a 1.5851353,1.5851353 50.152417 0 0 -1.30158,-1.55957 l -11.948925,-2.17253 a 1.1040752,1.1040752 140.15242 0 0 -1.301578,1.08627 z m 3.950747,7.62582 5.327666,0.88794 a 0.90071593,0.90071593 65.213115 0 1 0.624279,1.35188 1.4698162,1.4698162 172.52106 0 1 -1.436029,0.18852 h -4.497916 a 1.3229167,1.3229167 45 0 1 -1.322917,-1.32292 1.1206767,1.1206767 139.73126 0 1 1.304917,-1.10542 z" />
        <path
           d="m 86.802657,199.68709 a 1.6491666,1.6491666 51.264337 0 0 1.291414,1.60989 l 9.323422,2.07187 a 1.6491687,1.6491687 51.264396 0 1 1.291414,1.6099 v 0.26458 a 1.0384875,1.0384875 141.86814 0 1 -1.28508,1.00879 l -9.33609,-2.28216 a 1.0384875,1.0384875 141.86814 0 0 -1.28508,1.00879 l 0,6.61458 a 1.3229167,1.3229167 45 0 0 1.322917,1.32292 h 7.937496 a 2.1405278,2.1405278 148.28257 0 0 1.914545,-1.18325 l 0.139664,-0.27933 a 0.31229933,0.31229933 13.282569 0 1 0.591628,0.13967 1.322915,1.322915 44.999926 0 0 1.322913,1.32291 1.3229165,1.3229165 134.99999 0 0 1.32292,-1.32292 v -9.26041 a 1.5851353,1.5851353 50.152417 0 0 -1.30158,-1.55957 l -11.948925,-2.17253 a 1.1040752,1.1040752 140.15242 0 0 -1.301578,1.08627 z m 3.950747,7.62582 5.327666,0.88794 a 0.90071593,0.90071593 65.213115 0 1 0.624279,1.35188 1.4698162,1.4698162 172.52106 0 1 -1.436029,0.18852 l -4.497916,0 a 1.3229167,1.3229167 45 0 1 -1.322917,-1.32292 1.1206767,1.1206767 139.73126 0 1 1.304917,-1.10542 z"
           style="fill:#0066ff;stroke:#000000;stroke-width:0.264583px;stroke-linecap:butt;stroke-linejoin:miter;stroke-opacity:1"
           id="path841-1-1-2-9-6-6-7" />
        <path
           id="path841-1-1-8-2-1-6-2-6"
           style="fill:#80b3ff;stroke:#000000;stroke-width:0.264583px;stroke-linecap:butt;stroke-linejoin:miter;stroke-opacity:1"
           d="m 85.891748,198.69194 a 1.6491617,1.6491617 51.264186 0 0 1.291414,1.60988 l 9.323422,2.07188 a 1.6491701,1.6491701 51.264419 0 1 1.291414,1.6099 v 0.26458 a 1.0384875,1.0384875 141.86814 0 1 -1.28508,1.00879 l -9.33609,-2.28216 a 1.0384875,1.0384875 141.86814 0 0 -1.28508,1.00879 v 6.61458 a 1.3229167,1.3229167 45 0 0 1.322917,1.32292 h 7.937497 a 2.1405271,2.1405271 148.28256 0 0 1.914545,-1.18325 l 0.139663,-0.27933 a 0.31229911,0.31229911 13.28256 0 1 0.591628,0.13967 1.322915,1.322915 44.999926 0 0 1.322917,1.32291 1.322916,1.322916 134.99997 0 0 1.322915,-1.32292 l 0,-9.26042 a 1.5851342,1.5851342 50.152398 0 0 -1.301578,-1.55957 l -11.948926,-2.17252 a 1.104076,1.104076 140.1524 0 0 -1.301578,1.08627 z m 3.950748,7.62582 5.327666,0.88794 a 0.90071593,0.90071593 65.213115 0 1 0.624279,1.35188 1.4698162,1.4698162 172.52106 0 1 -1.436029,0.18852 h -4.497916 a 1.3229167,1.3229167 45 0 1 -1.322917,-1.32292 1.1206767,1.1206767 139.73126 0 1 1.304917,-1.10542 z" />
      </g>
    </g>
  </g>
</svg>
